<?xml version="1.0" encoding="utf-8"?>
<svg version="1.1" xmlns:xlink="http://www.w3.org/1999/xlink" width="12px" height="12px" viewBox="384 149.5  12 12" xmlns="http://www.w3.org/2000/svg">
  <path d="M 390 149.5  C 393.36 149.5  396 152.14  396 155.5  C 396 158.86  393.36 161.5  390 161.5  C 386.64 161.5  384 158.86  384 155.5  C 384 152.14  386.64 149.5  390 149.5  Z " fill-rule="nonzero" fill="#ffffff" stroke="none" />
  <path d="M 390 150  C 393.08 150  395.5 152.42  395.5 155.5  C 395.5 158.58  393.08 161  390 161  C 386.92 161  384.5 158.58  384.5 155.5  C 384.5 152.42  386.92 150  390 150  Z " stroke-width="1" stroke="#797979" fill="none" />
  <path d="M 390 158.5  C 388.32 158.5  387 157.18  387 155.5  C 387 153.82  388.32 152.5  390 152.5  C 391.68 152.5  393 153.82  393 155.5  C 393 157.18  391.68 158.5  390 158.5  " fill-rule="nonzero" fill="#797979" stroke="none" />
</svg>