<?xml version="1.0" encoding="utf-8"?>
<svg version="1.1" xmlns:xlink="http://www.w3.org/1999/xlink" width="16px" height="20px" xmlns="http://www.w3.org/2000/svg">
  <g transform="matrix(1 0 0 1 -501 -349 )">
    <path d="M 1.23076923076923 15.3571428571429  L 1.23076923076923 18.5714285714286  L 4 18.5714285714286  L 4 15.3571428571429  L 1.23076923076923 15.3571428571429  Z M 4.61538461538462 15.3571428571429  L 4.61538461538462 18.5714285714286  L 7.69230769230769 18.5714285714286  L 7.69230769230769 15.3571428571429  L 4.61538461538462 15.3571428571429  Z M 1.23076923076923 11.0714285714286  L 1.23076923076923 14.6428571428571  L 4 14.6428571428571  L 4 11.0714285714286  L 1.23076923076923 11.0714285714286  Z M 4.61538461538462 11.0714285714286  L 4.61538461538462 14.6428571428571  L 7.69230769230769 14.6428571428571  L 7.69230769230769 11.0714285714286  L 4.61538461538462 11.0714285714286  Z M 1.23076923076923 7.14285714285714  L 1.23076923076923 10.3571428571429  L 4 10.3571428571429  L 4 7.14285714285714  L 1.23076923076923 7.14285714285714  Z M 8.30769230769231 15.3571428571429  L 8.30769230769231 18.5714285714286  L 11.3846153846154 18.5714285714286  L 11.3846153846154 15.3571428571429  L 8.30769230769231 15.3571428571429  Z M 4.61538461538462 7.14285714285714  L 4.61538461538462 10.3571428571429  L 7.69230769230769 10.3571428571429  L 7.69230769230769 7.14285714285714  L 4.61538461538462 7.14285714285714  Z M 12 15.3571428571429  L 12 18.5714285714286  L 14.7692307692308 18.5714285714286  L 14.7692307692308 15.3571428571429  L 12 15.3571428571429  Z M 8.30769230769231 11.0714285714286  L 8.30769230769231 14.6428571428571  L 11.3846153846154 14.6428571428571  L 11.3846153846154 11.0714285714286  L 8.30769230769231 11.0714285714286  Z M 4.83173076923077 5.25111607142857  C 4.89262820512821 5.18043154761905  4.92307692307692 5.09672619047619  4.92307692307692 5  L 4.92307692307692 1.78571428571429  C 4.92307692307692 1.6889880952381  4.89262820512821 1.60528273809524  4.83173076923077 1.53459821428571  C 4.77083333333333 1.46391369047619  4.69871794871795 1.42857142857143  4.61538461538462 1.42857142857143  L 4 1.42857142857143  C 3.91666666666667 1.42857142857143  3.84455128205128 1.46391369047619  3.78365384615385 1.53459821428571  C 3.72275641025641 1.60528273809524  3.69230769230769 1.6889880952381  3.69230769230769 1.78571428571429  L 3.69230769230769 5  C 3.69230769230769 5.09672619047619  3.72275641025641 5.18043154761905  3.78365384615385 5.25111607142857  C 3.84455128205128 5.32180059523809  3.91666666666667 5.35714285714286  4 5.35714285714286  L 4.61538461538462 5.35714285714286  C 4.69871794871795 5.35714285714286  4.77083333333333 5.32180059523809  4.83173076923077 5.25111607142857  Z M 12 11.0714285714286  L 12 14.6428571428571  L 14.7692307692308 14.6428571428571  L 14.7692307692308 11.0714285714286  L 12 11.0714285714286  Z M 8.30769230769231 7.14285714285714  L 8.30769230769231 10.3571428571429  L 11.3846153846154 10.3571428571429  L 11.3846153846154 7.14285714285714  L 8.30769230769231 7.14285714285714  Z M 12 7.14285714285714  L 12 10.3571428571429  L 14.7692307692308 10.3571428571429  L 14.7692307692308 7.14285714285714  L 12 7.14285714285714  Z M 12.2163461538462 5.25111607142857  C 12.2772435897436 5.18043154761905  12.3076923076923 5.09672619047619  12.3076923076923 5  L 12.3076923076923 1.78571428571429  C 12.3076923076923 1.6889880952381  12.2772435897436 1.60528273809524  12.2163461538462 1.53459821428571  C 12.1554487179487 1.46391369047619  12.0833333333333 1.42857142857143  12 1.42857142857143  L 11.3846153846154 1.42857142857143  C 11.3012820512821 1.42857142857143  11.2291666666667 1.46391369047619  11.1682692307692 1.53459821428571  C 11.1073717948718 1.60528273809524  11.0769230769231 1.6889880952381  11.0769230769231 1.78571428571429  L 11.0769230769231 5  C 11.0769230769231 5.09672619047619  11.1073717948718 5.18043154761905  11.1682692307692 5.25111607142857  C 11.2291666666667 5.32180059523809  11.3012820512821 5.35714285714286  11.3846153846154 5.35714285714286  L 12 5.35714285714286  C 12.0833333333333 5.35714285714286  12.1554487179487 5.32180059523809  12.2163461538462 5.25111607142857  Z M 15.6346153846154 3.28125  C 15.8782051282051 3.5639880952381  16 3.89880952380952  16 4.28571428571429  L 16 18.5714285714286  C 16 18.9583333333333  15.8782051282051 19.2931547619048  15.6346153846154 19.5758928571429  C 15.3910256410256 19.858630952381  15.1025641025641 20  14.7692307692308 20  L 1.23076923076923 20  C 0.897435897435898 20  0.608974358974359 19.858630952381  0.365384615384615 19.5758928571429  C 0.121794871794872 19.2931547619048  0 18.9583333333333  0 18.5714285714286  L 0 4.28571428571429  C 0 3.89880952380952  0.121794871794872 3.5639880952381  0.365384615384615 3.28125  C 0.608974358974359 2.9985119047619  0.897435897435898 2.85714285714286  1.23076923076923 2.85714285714286  L 2.46153846153846 2.85714285714286  L 2.46153846153846 1.78571428571429  C 2.46153846153846 1.29464285714286  2.61217948717949 0.874255952380951  2.91346153846154 0.524553571428572  C 3.21474358974359 0.174851190476191  3.57692307692308 0  4 0  L 4.61538461538462 0  C 5.03846153846154 0  5.40064102564103 0.174851190476191  5.70192307692308 0.524553571428572  C 6.00320512820513 0.874255952380951  6.15384615384615 1.29464285714286  6.15384615384615 1.78571428571429  L 6.15384615384615 2.85714285714286  L 9.84615384615385 2.85714285714286  L 9.84615384615385 1.78571428571429  C 9.84615384615385 1.29464285714286  9.99679487179487 0.874255952380951  10.2980769230769 0.524553571428572  C 10.599358974359 0.174851190476191  10.9615384615385 0  11.3846153846154 0  L 12 0  C 12.4230769230769 0  12.7852564102564 0.174851190476191  13.0865384615385 0.524553571428572  C 13.3878205128205 0.874255952380951  13.5384615384615 1.29464285714286  13.5384615384615 1.78571428571429  L 13.5384615384615 2.85714285714286  L 14.7692307692308 2.85714285714286  C 15.1025641025641 2.85714285714286  15.3910256410256 2.9985119047619  15.6346153846154 3.28125  Z " fill-rule="nonzero" fill="#000000" stroke="none" transform="matrix(1 0 0 1 501 349 )" />
  </g>
</svg>