<?xml version="1.0" encoding="utf-8"?>
<svg version="1.1" xmlns:xlink="http://www.w3.org/1999/xlink" width="29px" height="29px" xmlns="http://www.w3.org/2000/svg">
  <g transform="matrix(1 0 0 1 -232 -343 )">
    <path d="M 2 7  L 2 25.7777777777778  C 2.07142857142856 27.55  3.93571428571429 29  6.21428571428571 29  L 22.7857142857143 29  C 25.0642857142857 29  26.9285714285714 27.55  27 25.7777777777778  L 27 7  L 2 7  Z M 11.5689285714286 17.7222222222222  L 7.1775 14.3066666666667  L 10.1085714285714 12.0269444444444  L 14.5 15.4425  L 18.8914285714286 12.0269444444444  L 21.8225 14.3066666666667  L 17.4310714285714 17.7222222222222  L 21.8225 21.1377777777778  L 18.8914285714286 23.4175  L 14.5 20.0019444444445  L 10.1085714285714 23.4175  L 7.1775 21.1377777777778  L 11.5689285714286 17.7222222222222  Z M 29 1.61111111111111  L 21.75 1.61111111111111  L 19.6785714285714 0  L 9.32142857142857 0  L 7.25000000000001 1.61111111111111  L 0 1.61111111111111  L 0 5  L 29 5  L 29 1.61111111111111  Z " fill-rule="nonzero" fill="#d9001b" stroke="none" transform="matrix(1 0 0 1 232 343 )" />
  </g>
</svg>