<?xml version="1.0" encoding="utf-8"?>
<svg version="1.1" xmlns:xlink="http://www.w3.org/1999/xlink" width="29px" height="30px" xmlns="http://www.w3.org/2000/svg">
  <g transform="matrix(1 0 0 1 -671 -342 )">
    <path d="M 2 7  L 2 26.6666666666667  C 2.07142857142856 28.5  3.93571428571429 30  6.21428571428571 30  L 22.7857142857143 30  C 25.0642857142857 30  26.9285714285714 28.5  27 26.6666666666667  L 27 7  L 2 7  Z M 11.5689285714286 18.3333333333333  L 7.1775 14.8  L 10.1085714285714 12.4416666666667  L 14.5 15.975  L 18.8914285714286 12.4416666666667  L 21.8225 14.8  L 17.4310714285714 18.3333333333333  L 21.8225 21.8666666666667  L 18.8914285714286 24.225  L 14.5 20.6916666666667  L 10.1085714285714 24.225  L 7.1775 21.8666666666667  L 11.5689285714286 18.3333333333333  Z M 29 1.66666666666666  L 21.75 1.66666666666666  L 19.6785714285714 0  L 9.32142857142857 0  L 7.25000000000001 1.66666666666666  L 0 1.66666666666666  L 0 5  L 29 5  L 29 1.66666666666666  Z " fill-rule="nonzero" fill="#d9001b" stroke="none" transform="matrix(1 0 0 1 671 342 )" />
  </g>
</svg>