<?xml version="1.0" encoding="utf-8"?>
<svg version="1.1" xmlns:xlink="http://www.w3.org/1999/xlink" width="21px" height="5px" xmlns="http://www.w3.org/2000/svg">
  <g transform="matrix(1 0 0 1 -825 -231 )">
    <path d="M 20.44921875 0.458984375  C 20.81640625 0.764973958333333  21 1.1328125  21 1.5625  L 21 3.4375  C 21 3.8671875  20.81640625 4.23502604166667  20.44921875 4.541015625  C 20.08203125 4.84700520833333  19.640625 5  19.125 5  L 1.875 5  C 1.359375 5  0.91796875 4.84700520833333  0.55078125 4.541015625  C 0.18359375 4.23502604166667  0 3.8671875  0 3.4375  L 0 1.5625  C 0 1.1328125  0.18359375 0.764973958333333  0.55078125 0.458984375  C 0.91796875 0.152994791666667  1.359375 0  1.875 0  L 19.125 0  C 19.640625 0  20.08203125 0.152994791666667  20.44921875 0.458984375  Z " fill-rule="nonzero" fill="#000000" stroke="none" transform="matrix(1 0 0 1 825 231 )" />
  </g>
</svg>