<?xml version="1.0" encoding="utf-8"?>
<svg version="1.1" xmlns:xlink="http://www.w3.org/1999/xlink" width="14px" height="16px" xmlns="http://www.w3.org/2000/svg">
  <g transform="matrix(1 0 0 1 -857 -225 )">
    <path d="M 13.6700336700337 11.959595959596  C 13.8900112233446 12.2109988776655  14 12.5162738496072  14 12.8754208754209  C 14 13.2345679012346  13.8900112233446 13.5398428731762  13.6700336700337 13.7912457912458  L 12.0673400673401 15.6228956228956  C 11.8473625140292 15.8742985409652  11.5802469135802 16  11.2659932659933 16  C 10.9517396184063 16  10.6846240179574 15.8742985409652  10.4646464646465 15.6228956228956  L 7 11.6632996632997  L 3.53535353535354 15.6228956228956  C 3.31537598204265 15.8742985409652  3.04826038159371 16  2.73400673400673 16  C 2.41975308641975 16  2.15263748597082 15.8742985409652  1.93265993265993 15.6228956228956  L 0.32996632996633 13.7912457912458  C 0.109988776655443 13.5398428731762  0 13.2345679012346  0 12.8754208754209  C 0 12.5162738496072  0.109988776655443 12.2109988776655  0.32996632996633 11.959595959596  L 3.79461279461279 8  L 0.32996632996633 4.04040404040404  C 0.109988776655443 3.78900112233445  0 3.48372615039282  0 3.12457912457912  C 0 2.76543209876543  0.109988776655443 2.46015712682379  0.32996632996633 2.20875420875421  L 1.93265993265993 0.377104377104377  C 2.15263748597082 0.125701459034792  2.41975308641975 0  2.73400673400673 0  C 3.04826038159371 0  3.31537598204265 0.125701459034792  3.53535353535354 0.377104377104377  L 7 4.33670033670034  L 10.4646464646465 0.377104377104377  C 10.6846240179574 0.125701459034792  10.9517396184063 0  11.2659932659933 0  C 11.5802469135802 0  11.8473625140292 0.125701459034792  12.0673400673401 0.377104377104377  L 13.6700336700337 2.20875420875421  C 13.8900112233446 2.46015712682379  14 2.76543209876543  14 3.12457912457912  C 14 3.48372615039282  13.8900112233446 3.78900112233445  13.6700336700337 4.04040404040404  L 10.2053872053872 8  L 13.6700336700337 11.959595959596  Z " fill-rule="nonzero" fill="#000000" stroke="none" transform="matrix(1 0 0 1 857 225 )" />
  </g>
</svg>