<?xml version="1.0" encoding="utf-8"?>
<svg version="1.1" xmlns:xlink="http://www.w3.org/1999/xlink" width="93px" height="110px" xmlns="http://www.w3.org/2000/svg">
  <g transform="matrix(1 0 0 1 -584 -330 )">
    <path d="M 37.8803267045455 106.87570303712  C 39.7958096590909 105.61773528309  40.7535511363636 104.535058117735  40.7535511363636 103.627671541057  C 40.7535511363636 103.173978252718  40.4673295454545 101.977877765279  39.8948863636364 100.03937007874  C 39.3224431818182 98.100862392201  38.6399147727273 95.8942632170979  37.8473011363636 93.4195725534308  C 37.0546875 90.9448818897638  36.6143465909091 89.5219347581552  36.5262784090909 89.1507311586052  C 36.4822443181818 88.9857517810274  36.3721590909091 88.4392575928009  36.1960227272727 87.5112485939258  C 36.0198863636364 86.5832395950506  35.8327414772727 85.8408323959505  35.6345880681818 85.2840269966254  C 35.4364346590909 84.7272215973003  35.1392045454545 84.28383952006  34.7428977272727 83.9538807649044  C 34.0823863636364 83.3764529433821  32.9595170454545 83.0877390326209  31.3742897727273 83.0877390326209  C 30.3615056818182 83.0877390326209  28.8203125 83.2011623547057  26.7507102272727 83.4280089988751  C 24.6811079545455 83.6548556430446  23.1178977272727 83.7682789651294  22.0610795454545 83.7682789651294  C 20.5639204545455 83.7682789651294  19.5291193181818 83.5414323209599  18.9566761363636 83.0877390326209  C 18.6924715909091 82.8815148106487  18.4502840909091 82.5618672665917  18.2301136363636 82.1287964004499  C 18.0099431818182 81.6957255343082  17.8448153409091 81.2832770903637  17.7347301136364 80.8914510686164  C 17.6246448863636 80.4996250468691  17.4815340909091 80.0046869141357  17.3053977272727 79.4066366704162  C 17.1292613636364 78.8085864266967  17.0191761363636 78.427071616048  16.9751420454545 78.2620922384702  C 15.3458806818182 72.9827521559805  14.53125 67.724034495688  14.53125 62.4859392575928  C 14.53125 57.2478440194976  15.3458806818182 51.9891263592051  16.9751420454545 46.7097862767154  C 17.0191761363636 46.5448068991376  17.1292613636364 46.1632920884889  17.3053977272727 45.5652418447694  C 17.4815340909091 44.9671916010499  17.6246448863636 44.4722534683165  17.7347301136364 44.0804274465692  C 17.8448153409091 43.6886014248219  18.0099431818182 43.2761529808774  18.2301136363636 42.8430821147357  C 18.4502840909091 42.4100112485939  18.6924715909091 42.0903637045369  18.9566761363636 41.8841394825647  C 19.5291193181818 41.4304461942257  20.5639204545455 41.2035995500562  22.0610795454545 41.2035995500562  C 23.1178977272727 41.2035995500562  24.6811079545455 41.317022872141  26.7507102272727 41.5438695163105  C 28.8203125 41.7707161604799  30.3615056818182 41.8841394825647  31.3742897727273 41.8841394825647  C 32.9595170454545 41.8841394825647  34.0823863636364 41.5954255718035  34.7428977272727 41.0179977502812  C 35.1392045454545 40.6880389951256  35.4364346590909 40.2446569178853  35.6345880681818 39.6878515185602  C 35.8327414772727 39.1310461192351  36.0198863636364 38.388638920135  36.1960227272727 37.4606299212598  C 36.3721590909091 36.5326209223847  36.4822443181818 35.9861267341582  36.5262784090909 35.8211473565804  C 36.6143465909091 35.4499437570304  37.0546875 34.0269966254218  37.8473011363636 31.5523059617548  C 38.6399147727273 29.0776152980877  39.3224431818182 26.8710161229846  39.8948863636364 24.9325084364454  C 40.4673295454545 22.9940007499062  40.7535511363636 21.7979002624672  40.7535511363636 21.3442069741282  C 40.7535511363636 20.4368203974503  39.7958096590909 19.354143232096  37.8803267045455 18.0961754780652  C 35.96484375 16.8382077240345  34.3025568181818 15.9617547806524  32.8934659090909 15.466816647919  C 32.0127840909091 15.1368578927634  31.0220170454545 14.9718785151856  29.9211647727273 14.9718785151856  C 28.4240056818182 14.9718785151856  26.2663352272727 15.3430821147357  23.4481534090909 16.0854893138358  C 20.9382102272727 16.7866516685414  18.8135653409091 17.6218597675291  17.07421875 18.5911136107986  C 15.3348721590909 19.5603674540682  13.7716619318182 20.9214473190851  12.3845880681818 22.6743532058493  C 10.9975142045455 24.4272590926134  9.98473011363637 25.8708286464192  9.34623579545455 27.0050618672666  C 8.70774147727273 28.139295088114  7.70596590909091 30.0881139857518  6.34090909090909 32.85151856018  C 6.07670454545455 33.3464566929134  5.87855113636364 33.7382827146607  5.74644886363636 34.0269966254218  C 3.58877840909091 38.440194975628  2.09161931818182 42.8946381702287  1.25497159090909 47.3903262092238  C 0.418323863636364 51.886014248219  0 56.917885264342  0 62.4859392575928  C 0 68.0539932508436  0.418323863636364 73.0858642669666  1.25497159090909 77.5815523059618  C 2.09161931818182 82.0772403449569  3.58877840909091 86.5316835395576  5.74644886363636 90.9448818897638  C 8.21235795454546 95.9767529058868  10.0397727272727 99.29696287964  11.2286931818182 100.905511811024  C 14.0028409090909 104.658792650919  17.9438920454545 107.277840269966  23.0518465909091 108.762654668166  L 23.4481534090909 108.88638920135  C 26.2663352272727 109.62879640045  28.4240056818182 110  29.9211647727273 110  C 31.0220170454545 110  32.0127840909091 109.835020622422  32.8934659090909 109.505061867267  C 34.3025568181818 109.010123734533  35.96484375 108.133670791151  37.8803267045455 106.87570303712  Z M 54.2279829545455 45.9673790776153  C 53.3032670454545 46.7510311211099  52.3125 47.1428571428571  51.2556818181818 47.1428571428571  C 50.1107954545455 47.1428571428571  49.1200284090909 46.7510311211099  48.2833806818182 45.9673790776153  C 47.4467329545455 45.1837270341207  47.0284090909091 44.245406824147  47.0284090909091 43.152418447694  C 47.0284090909091 42.0594300712411  47.4467329545455 41.1211098612673  48.2833806818182 40.3374578177728  C 49.9126420454545 38.8113985751781  50.7272727272727 36.9553805774278  50.7272727272727 34.7694038245219  C 50.7272727272727 32.6246719160105  49.9126420454545 30.748031496063  48.2833806818182 29.1394825646794  C 47.4467329545455 28.3558305211849  47.0284090909091 27.4278215223097  47.0284090909091 26.355455568054  C 47.0284090909091 25.2830896137983  47.4467329545455 24.3550806149231  48.2833806818182 23.5714285714286  C 49.1200284090909 22.787776527934  50.1107954545455 22.3959505061867  51.2556818181818 22.3959505061867  C 52.4005681818182 22.3959505061867  53.3913352272727 22.787776527934  54.2279829545455 23.5714285714286  C 57.5305397727273 26.6647919010124  59.1818181818182 30.3974503187102  59.1818181818182 34.7694038245219  C 59.1818181818182 39.1413573303337  57.5305397727273 42.8740157480315  54.2279829545455 45.9673790776153  Z M 66.1832386363636 57.1653543307087  C 65.390625 57.9490063742032  64.3998579545455 58.3408323959505  63.2109375 58.3408323959505  C 62.0220170454546 58.3408323959505  61.03125 57.9490063742032  60.2386363636364 57.1653543307087  C 59.4019886363636 56.3817022872141  58.9836647727273 55.453693288339  58.9836647727273 54.3813273340832  C 58.9836647727273 53.3089613798275  59.4019886363636 52.3809523809524  60.2386363636364 51.5973003374578  C 65.1704545454545 46.8953880764904  67.6363636363636 41.2860892388451  67.6363636363636 34.7694038245219  C 67.6363636363636 28.2527184101987  65.1704545454545 22.6434195725534  60.2386363636364 17.9415073115861  C 59.4019886363636 17.1578552680915  58.9836647727273 16.2298462692163  58.9836647727273 15.1574803149606  C 58.9836647727273 14.0851143607049  59.4019886363636 13.1571053618298  60.2386363636364 12.3734533183352  C 61.0752840909091 11.5898012748406  62.0660511363636 11.1979752530934  63.2109375 11.1979752530934  C 64.3558238636364 11.1979752530934  65.3465909090909 11.5898012748406  66.1832386363636 12.3734533183352  C 72.7883522727273 18.5601799775028  76.0909090909091 26.0254968128984  76.0909090909091 34.7694038245219  C 76.0909090909091 43.5133108361455  72.7883522727273 50.9786276715411  66.1832386363636 57.1653543307087  Z M 78.1384943181818 68.363329583802  C 77.3458806818182 69.1469816272966  76.3551136363636 69.5388076490439  75.1661931818182 69.5388076490439  C 73.9772727272727 69.5388076490439  72.9865056818182 69.1469816272966  72.1938920454545 68.363329583802  C 71.3572443181818 67.5796775403075  70.9389204545455 66.6516685414323  70.9389204545455 65.5793025871766  C 70.9389204545455 64.5069366329209  71.3572443181818 63.5789276340457  72.1938920454545 62.7952755905512  C 76.1569602272727 59.0419947506562  79.2063210227273 54.7525309336333  81.3419744318182 49.9268841394826  C 83.4776278409091 45.1012373453318  84.5454545454545 40.0487439070116  84.5454545454545 34.7694038245219  C 84.5454545454545 29.4900637420322  83.4776278409091 24.437570303712  81.3419744318182 19.6119235095613  C 79.2063210227273 14.7862767154106  76.1569602272727 10.4968128983877  72.1938920454545 6.74353205849269  C 71.3572443181818 5.95988001499813  70.9389204545455 5.03187101612298  70.9389204545455 3.95950506186727  C 70.9389204545455 2.88713910761154  71.3572443181818 1.9591301087364  72.1938920454545 1.17547806524185  C 73.0305397727273 0.391826021747278  74.0213068181818 0  75.1661931818182 0  C 76.3110795454546 0  77.3018465909091 0.391826021747278  78.1384943181818 1.17547806524185  C 82.9382102272727 5.67116610423696  86.6150568181818 10.8061492313461  89.1690340909091 16.5804274465692  C 91.7230113636364 22.3547056617923  93 28.4176977877765  93 34.7694038245219  C 93 41.1211098612673  91.7230113636364 47.1841019872516  89.1690340909091 52.9583802024747  C 86.6150568181818 58.7326584176978  82.9382102272727 63.8676415448069  78.1384943181818 68.363329583802  Z " fill-rule="nonzero" fill="#000000" stroke="none" transform="matrix(1 0 0 1 584 330 )" />
  </g>
</svg>