<?xml version="1.0" encoding="utf-8"?>
<svg version="1.1" xmlns:xlink="http://www.w3.org/1999/xlink" width="23px" height="24px" xmlns="http://www.w3.org/2000/svg">
  <g transform="matrix(1 0 0 1 -581 -113 )">
    <path d="M 15.4807692307692 18.2544642857143  C 15.4807692307692 18.3705357142857  15.4393028846154 18.46875  15.3563701923077 18.5491071428571  L 14.7205528846154 19.1651785714286  C 14.6376201923077 19.2455357142857  14.5362580128205 19.2857142857143  14.4164663461538 19.2857142857143  C 14.2966746794872 19.2857142857143  14.1907051282051 19.2455357142857  14.0985576923077 19.1651785714286  L 11.5 16.6339285714286  L 8.90144230769231 19.1651785714286  C 8.80929487179487 19.2455357142857  8.70332532051282 19.2857142857143  8.58353365384615 19.2857142857143  C 8.46374198717949 19.2857142857143  8.36237980769231 19.2455357142857  8.27944711538462 19.1651785714286  L 7.64362980769231 18.5491071428571  C 7.56069711538462 18.46875  7.51923076923077 18.3705357142857  7.51923076923077 18.2544642857143  C 7.51923076923077 18.1383928571429  7.56069711538462 18.0357142857143  7.64362980769231 17.9464285714286  L 10.2560096153846 15.4285714285714  L 7.64362980769231 12.9107142857143  C 7.56069711538462 12.8214285714286  7.51923076923077 12.71875  7.51923076923077 12.6026785714286  C 7.51923076923077 12.4866071428571  7.56069711538462 12.3883928571429  7.64362980769231 12.3080357142857  L 8.27944711538462 11.6919642857143  C 8.36237980769231 11.6116071428571  8.46374198717949 11.5714285714286  8.58353365384615 11.5714285714286  C 8.70332532051282 11.5714285714286  8.80929487179487 11.6116071428571  8.90144230769231 11.6919642857143  L 11.5 14.2098214285714  L 14.0985576923077 11.6919642857143  C 14.1907051282051 11.6116071428571  14.2966746794872 11.5714285714286  14.4164663461538 11.5714285714286  C 14.5362580128205 11.5714285714286  14.6376201923077 11.6116071428571  14.7205528846154 11.6919642857143  L 15.3563701923077 12.3080357142857  C 15.4393028846154 12.3883928571429  15.4807692307692 12.4866071428571  15.4807692307692 12.6026785714286  C 15.4807692307692 12.71875  15.4393028846154 12.8214285714286  15.3563701923077 12.9107142857143  L 12.7578125 15.4285714285714  L 15.3563701923077 17.9464285714286  C 15.4393028846154 18.0357142857143  15.4807692307692 18.1383928571429  15.4807692307692 18.2544642857143  Z M 2 9  L 2 22  L 21 22  L 21 9  L 2 9  Z M 6.95252403846154 6.30803571428571  C 7.03545673076923 6.22767857142857  7.07692307692308 6.125  7.07692307692308 6  L 7.07692307692308 2.14285714285714  C 7.07692307692308 2.01785714285714  7.03545673076923 1.91517857142857  6.95252403846154 1.83482142857143  C 6.86959134615385 1.75446428571429  6.76362179487179 1.71428571428571  6.63461538461538 1.71428571428571  L 5.75 1.71428571428571  C 5.62099358974359 1.71428571428571  5.51502403846154 1.75446428571429  5.43209134615385 1.83482142857143  C 5.34915865384615 1.91517857142857  5.30769230769231 2.01785714285714  5.30769230769231 2.14285714285714  L 5.30769230769231 6  C 5.30769230769231 6.125  5.34915865384615 6.22767857142857  5.43209134615385 6.30803571428571  C 5.51502403846154 6.38839285714286  5.62099358974359 6.42857142857143  5.75 6.42857142857143  L 6.63461538461538 6.42857142857143  C 6.76362179487179 6.42857142857143  6.86959134615385 6.38839285714286  6.95252403846154 6.30803571428571  Z M 17.5679086538462 6.30803571428571  C 17.6508413461538 6.22767857142857  17.6923076923077 6.125  17.6923076923077 6  L 17.6923076923077 2.14285714285714  C 17.6923076923077 2.01785714285714  17.6508413461538 1.91517857142857  17.5679086538462 1.83482142857143  C 17.4849759615385 1.75446428571429  17.3790064102564 1.71428571428571  17.25 1.71428571428571  L 16.3653846153846 1.71428571428571  C 16.2363782051282 1.71428571428571  16.1304086538462 1.75446428571429  16.0474759615385 1.83482142857143  C 15.9645432692308 1.91517857142857  15.9230769230769 2.01785714285714  15.9230769230769 2.14285714285714  L 15.9230769230769 6  C 15.9230769230769 6.125  15.9645432692308 6.22767857142857  16.0474759615385 6.30803571428571  C 16.1304086538462 6.38839285714286  16.2363782051282 6.42857142857143  16.3653846153846 6.42857142857143  L 17.25 6.42857142857143  C 17.3790064102564 6.42857142857143  17.4849759615385 6.38839285714286  17.5679086538462 6.30803571428571  Z M 22.4747596153846 3.9375  C 22.8249198717949 4.27678571428571  23 4.67857142857143  23 5.14285714285714  L 23 22.2857142857143  C 23 22.75  22.8249198717949 23.1517857142857  22.4747596153846 23.4910714285714  C 22.1245993589744 23.8303571428571  21.7099358974359 24  21.2307692307692 24  L 1.76923076923077 24  C 1.2900641025641 24  0.875400641025641 23.8303571428571  0.525240384615385 23.4910714285714  C 0.175080128205128 23.1517857142857  0 22.75  0 22.2857142857143  L 0 5.14285714285714  C 0 4.67857142857143  0.175080128205128 4.27678571428571  0.525240384615385 3.9375  C 0.875400641025641 3.59821428571428  1.2900641025641 3.42857142857143  1.76923076923077 3.42857142857143  L 3.53846153846154 3.42857142857143  L 3.53846153846154 2.14285714285714  C 3.53846153846154 1.55357142857143  3.75500801282051 1.04910714285714  4.18810096153846 0.629464285714286  C 4.62119391025641 0.209821428571429  5.14182692307692 0  5.75 0  L 6.63461538461538 0  C 7.24278846153846 0  7.76342147435898 0.209821428571429  8.19651442307692 0.629464285714286  C 8.62960737179487 1.04910714285714  8.84615384615385 1.55357142857143  8.84615384615385 2.14285714285714  L 8.84615384615385 3.42857142857143  L 14.1538461538462 3.42857142857143  L 14.1538461538462 2.14285714285714  C 14.1538461538462 1.55357142857143  14.3703926282051 1.04910714285714  14.8034855769231 0.629464285714286  C 15.236578525641 0.209821428571429  15.7572115384615 0  16.3653846153846 0  L 17.25 0  C 17.8581730769231 0  18.3788060897436 0.209821428571429  18.8118990384615 0.629464285714286  C 19.2449919871795 1.04910714285714  19.4615384615385 1.55357142857143  19.4615384615385 2.14285714285714  L 19.4615384615385 3.42857142857143  L 21.2307692307692 3.42857142857143  C 21.7099358974359 3.42857142857143  22.1245993589744 3.59821428571428  22.4747596153846 3.9375  Z " fill-rule="nonzero" fill="#000000" stroke="none" transform="matrix(1 0 0 1 581 113 )" />
  </g>
</svg>