<?xml version="1.0" encoding="utf-8"?>
<svg version="1.1" xmlns:xlink="http://www.w3.org/1999/xlink" width="12px" height="12px" viewBox="283 418.5  12 12" xmlns="http://www.w3.org/2000/svg">
  <path d="M 289 418.5  C 292.36 418.5  295 421.14  295 424.5  C 295 427.86  292.36 430.5  289 430.5  C 285.64 430.5  283 427.86  283 424.5  C 283 421.14  285.64 418.5  289 418.5  Z " fill-rule="nonzero" fill="#ffffff" stroke="none" />
  <path d="M 289 419  C 292.08 419  294.5 421.42  294.5 424.5  C 294.5 427.58  292.08 430  289 430  C 285.92 430  283.5 427.58  283.5 424.5  C 283.5 421.42  285.92 419  289 419  Z " stroke-width="1" stroke="#797979" fill="none" />
  <path d="M 289 427.5  C 287.32 427.5  286 426.18  286 424.5  C 286 422.82  287.32 421.5  289 421.5  C 290.68 421.5  292 422.82  292 424.5  C 292 426.18  290.68 427.5  289 427.5  " fill-rule="nonzero" fill="#797979" stroke="none" />
</svg>