<?xml version="1.0" encoding="utf-8"?>
<svg version="1.1" xmlns:xlink="http://www.w3.org/1999/xlink" width="12px" height="12px" viewBox="384 270.5  12 12" xmlns="http://www.w3.org/2000/svg">
  <path d="M 390 270.5  C 393.36 270.5  396 273.14  396 276.5  C 396 279.86  393.36 282.5  390 282.5  C 386.64 282.5  384 279.86  384 276.5  C 384 273.14  386.64 270.5  390 270.5  Z " fill-rule="nonzero" fill="#ffffff" stroke="none" />
  <path d="M 390 271  C 393.08 271  395.5 273.42  395.5 276.5  C 395.5 279.58  393.08 282  390 282  C 386.92 282  384.5 279.58  384.5 276.5  C 384.5 273.42  386.92 271  390 271  Z " stroke-width="1" stroke="#797979" fill="none" />
  <path d="M 390 279.5  C 388.32 279.5  387 278.18  387 276.5  C 387 274.82  388.32 273.5  390 273.5  C 391.68 273.5  393 274.82  393 276.5  C 393 278.18  391.68 279.5  390 279.5  " fill-rule="nonzero" fill="#797979" stroke="none" />
</svg>