<?xml version="1.0" encoding="utf-8"?>
<svg version="1.1" xmlns:xlink="http://www.w3.org/1999/xlink" width="12px" height="12px" viewBox="384 224.5  12 12" xmlns="http://www.w3.org/2000/svg">
  <path d="M 390 224.5  C 393.36 224.5  396 227.14  396 230.5  C 396 233.86  393.36 236.5  390 236.5  C 386.64 236.5  384 233.86  384 230.5  C 384 227.14  386.64 224.5  390 224.5  Z " fill-rule="nonzero" fill="#ffffff" stroke="none" />
  <path d="M 390 225  C 393.08 225  395.5 227.42  395.5 230.5  C 395.5 233.58  393.08 236  390 236  C 386.92 236  384.5 233.58  384.5 230.5  C 384.5 227.42  386.92 225  390 225  Z " stroke-width="1" stroke="#797979" fill="none" />
  <path d="M 390 233.5  C 388.32 233.5  387 232.18  387 230.5  C 387 228.82  388.32 227.5  390 227.5  C 391.68 227.5  393 228.82  393 230.5  C 393 232.18  391.68 233.5  390 233.5  " fill-rule="nonzero" fill="#797979" stroke="none" />
</svg>