<?xml version="1.0" encoding="utf-8"?>
<svg version="1.1" xmlns:xlink="http://www.w3.org/1999/xlink" width="17px" height="31px" xmlns="http://www.w3.org/2000/svg">
  <g transform="matrix(1 0 0 1 -544 -310 )">
    <path d="M 1.21428571428571 7  L 1.21428571428571 27.5555555555556  C 1.21428571428571 29.45  2.30714285714286 31  3.64285714285714 31  L 13.3571428571429 31  C 14.6928571428572 31  15.7857142857143 29.45  15.7857142857143 27.5555555555556  L 15.7857142857143 7  L 1.21428571428571 7  Z M 6.78178571428572 18.9444444444444  L 4.2075 15.2933333333333  L 5.92571428571428 12.8563888888889  L 8.5 16.5075  L 11.0742857142857 12.8563888888889  L 12.7925 15.2933333333333  L 10.2182142857143 18.9444444444444  L 12.7925 22.5955555555556  L 11.0742857142857 25.0325  L 8.5 21.3813888888889  L 5.92571428571428 25.0325  L 4.2075 22.5955555555556  L 6.78178571428572 18.9444444444444  Z M 17 1.72222222222222  L 12.75 1.72222222222222  L 11.5357142857143 0  L 5.46428571428571 0  L 4.25 1.72222222222222  L 0 1.72222222222222  L 0 5.16666666666666  L 17 5.16666666666666  L 17 1.72222222222222  Z " fill-rule="nonzero" fill="#d9001b" stroke="none" transform="matrix(1 0 0 1 544 310 )" />
  </g>
</svg>